<svg width="412" height="379" viewBox="0 0 412 379" fill="none" xmlns="http://www.w3.org/2000/svg">
<path d="M205 44L211.053 37.6907C219.752 28.6223 229.85 21.0086 240.962 15.1398V15.1398C249.936 10.3999 259.487 6.84307 269.376 4.55812L271.039 4.17374C280.167 2.06475 289.521 1 298.888 1V1C309.617 1 320.318 2.39963 330.684 5.16345L333.183 5.82964C338.599 7.27368 343.876 9.19735 348.951 11.5778V11.5778C356.622 15.1762 363.773 19.7912 370.213 25.2984L376.058 30.2977C380.495 34.0925 384.605 38.2536 388.345 42.737L390.297 45.0765C397.962 54.2649 403.7 64.9015 407.169 76.3532V76.3532C409.709 84.7386 411 93.4526 411 102.214V105V109.929C411 124.564 408.858 139.121 404.643 153.136L403.253 157.754C399.016 171.842 392.729 185.229 384.596 197.486L379.687 204.884C375.659 210.953 371.195 216.721 366.329 222.142L341.324 250L205 378" stroke="black"/>
<path d="M205 44L198.94 37.6215C190.369 28.5992 180.403 21.0147 169.422 15.1585V15.1585C160.512 10.4065 151.02 6.838 141.186 4.54345L139.596 4.17229C130.562 2.06439 121.31 1 112.034 1V1C101.395 1 90.7964 2.40097 80.5234 5.16678L78.0872 5.82267C72.7066 7.2713 67.4668 9.19992 62.431 11.5853V11.5853C54.8452 15.1786 47.7799 19.781 41.4273 25.2674L35.6379 30.2673C31.2204 34.0823 27.1314 38.2619 23.4141 42.7619L21.5577 45.009C13.9298 54.2429 8.22697 64.9101 4.78538 76.3821V76.3821C2.27524 84.7492 1 93.438 1 102.174V105V110.134C1 124.635 3.10259 139.059 7.24215 152.956L8.70596 157.87C12.8796 171.881 19.0791 185.207 27.108 197.425L32.0063 204.879C35.9968 210.952 40.4233 216.726 45.2508 222.157L70 250L205 378" stroke="black"/>
</svg>
