<svg width="403" height="382" viewBox="0 0 403 382" fill="none" xmlns="http://www.w3.org/2000/svg">
<rect width="403" height="382" fill="white"/>
<path d="M200 46L206.072 39.4804C214.388 30.5522 224.092 23.0273 234.81 17.1969V17.1969C243.591 12.42 252.966 8.82747 262.69 6.51301L264.135 6.16926C272.982 4.06365 282.045 3 291.139 3V3C301.574 3 311.962 4.40043 322.025 7.16379L324.372 7.80821C329.681 9.26637 334.847 11.2052 339.805 13.6007V13.6007C347.221 17.1835 354.113 21.76 360.293 27.2038L365.971 32.2055C370.349 36.0617 374.395 40.2787 378.066 44.8121L379.736 46.8736C387.288 56.1989 392.92 66.9271 396.306 78.4395V78.4395C398.756 86.7702 400 95.409 400 104.093V107V112.546C400 126.776 397.975 140.934 393.986 154.594L392.376 160.107C388.33 173.963 382.304 187.163 374.486 199.297L369.605 206.874C365.69 212.95 361.342 218.735 356.593 224.184L332.353 252L200 380" stroke="black" stroke-width="5"/>
<path d="M203 46L196.928 39.4804C188.612 30.5522 178.908 23.0273 168.19 17.1969V17.1969C159.409 12.42 150.034 8.82747 140.31 6.51301L138.865 6.16926C130.018 4.06365 120.955 3 111.861 3V3C101.426 3 91.0377 4.40043 80.975 7.16379L78.6284 7.80821C73.3185 9.26637 68.1526 11.2052 63.1945 13.6007V13.6007C55.7792 17.1835 48.8865 21.76 42.7068 27.2038L37.0288 32.2055C32.6513 36.0617 28.6055 40.2787 24.9339 44.8121L23.2643 46.8736C15.7119 56.1989 10.0803 66.9271 6.69427 78.4395V78.4395C4.24406 86.7702 3 95.409 3 104.093V107V112.546C3 126.776 5.02501 140.934 9.01414 154.594L10.6241 160.107C14.6705 173.963 20.6958 187.163 28.5136 199.297L33.395 206.874C37.3096 212.95 41.6581 218.735 46.4067 224.184L70.6471 252L203 380" stroke="black" stroke-width="5"/>
</svg>
