<svg width="402" height="380" viewBox="0 0 402 380" fill="none" xmlns="http://www.w3.org/2000/svg">
<path d="M201 45L207.072 38.4804C215.388 29.5522 225.092 22.0273 235.81 16.1969V16.1969C244.591 11.42 253.966 7.82747 263.69 5.51301L265.135 5.16926C273.982 3.06365 283.045 2 292.139 2V2C302.574 2 312.962 3.40043 323.025 6.16379L325.372 6.80821C330.681 8.26637 335.847 10.2052 340.805 12.6007V12.6007C348.221 16.1835 355.113 20.76 361.293 26.2038L366.971 31.2055C371.349 35.0617 375.395 39.2787 379.066 43.8121L380.736 45.8736C388.288 55.1989 393.92 65.9271 397.306 77.4395V77.4395C399.756 85.7702 401 94.409 401 103.093V106V111.546C401 125.776 398.975 139.934 394.986 153.594L393.376 159.107C389.33 172.963 383.304 186.163 375.486 198.297L370.605 205.874C366.69 211.95 362.342 217.735 357.593 223.184L333.353 251L201 379" stroke="black" stroke-width="2"/>
<path d="M201 44L194.928 37.4804C186.612 28.5522 176.908 21.0273 166.19 15.1969V15.1969C157.409 10.42 148.034 6.82747 138.31 4.51301L136.865 4.16926C128.018 2.06365 118.955 1 109.861 1V1C99.4257 1 89.0377 2.40043 78.975 5.16379L76.6284 5.80821C71.3185 7.26637 66.1526 9.20523 61.1945 11.6007V11.6007C53.7792 15.1835 46.8865 19.76 40.7068 25.2038L35.0288 30.2055C30.6513 34.0617 26.6055 38.2787 22.9339 42.8121L21.2643 44.8736C13.7119 54.1989 8.08027 64.9271 4.69427 76.4395V76.4395C2.24406 84.7702 1 93.409 1 102.093V105V110.546C1 124.776 3.02501 138.934 7.01414 152.594L8.62408 158.107C12.6705 171.963 18.6958 185.163 26.5136 197.297L31.395 204.874C35.3096 210.95 39.6581 216.735 44.4067 222.184L68.6471 250L201 378" stroke="black" stroke-width="2"/>
</svg>
