<svg width="412" height="381" viewBox="0 0 412 381" fill="none" xmlns="http://www.w3.org/2000/svg">
<path d="M204 45L210.053 38.6907C218.752 29.6223 228.85 22.0086 239.962 16.1398V16.1398C248.936 11.3999 258.487 7.84307 268.376 5.55812L270.039 5.17374C279.167 3.06475 288.521 2 297.888 2V2C308.617 2 319.318 3.39963 329.684 6.16345L332.183 6.82964C337.599 8.27368 342.876 10.1973 347.951 12.5778V12.5778C355.622 16.1762 362.773 20.7912 369.213 26.2984L375.058 31.2977C379.495 35.0925 383.605 39.2536 387.345 43.737L389.297 46.0765C396.962 55.2649 402.7 65.9015 406.169 77.3532V77.3532C408.709 85.7386 410 94.4526 410 103.214V106V110.929C410 125.564 407.858 140.121 403.643 154.136L402.253 158.754C398.016 172.842 391.729 186.229 383.596 198.486L378.687 205.884C374.659 211.953 370.195 217.721 365.329 223.142L340.324 251L204 379" stroke="black" stroke-width="3"/>
<path d="M206 45L199.94 38.6215C191.369 29.5992 181.403 22.0147 170.422 16.1585V16.1585C161.512 11.4065 152.02 7.838 142.186 5.54345L140.596 5.17229C131.562 3.06439 122.31 2 113.034 2V2C102.395 2 91.7964 3.40097 81.5234 6.16678L79.0872 6.82267C73.7066 8.2713 68.4668 10.1999 63.431 12.5853V12.5853C55.8452 16.1786 48.7799 20.781 42.4273 26.2674L36.6379 31.2673C32.2204 35.0823 28.1314 39.2619 24.4141 43.7619L22.5577 46.009C14.9298 55.2429 9.22697 65.9101 5.78538 77.3821V77.3821C3.27524 85.7492 2 94.438 2 103.174V106V111.134C2 125.635 4.10259 140.059 8.24215 153.956L9.70596 158.87C13.8796 172.881 20.0791 186.207 28.108 198.425L33.0063 205.879C36.9968 211.952 41.4233 217.726 46.2508 223.157L71 251L206 379" stroke="black" stroke-width="3"/>
</svg>
